<?xml version="1.0" standalone="no"?>
<!DOCTYPE svg PUBLIC "-//W3C//DTD SVG 20010904//EN"
 "http://www.w3.org/TR/2001/REC-SVG-20010904/DTD/svg10.dtd">
<svg version="1.0" xmlns="http://www.w3.org/2000/svg"
 width="700.000000pt" height="700.000000pt" viewBox="0 0 700.000000 700.000000"
 preserveAspectRatio="xMidYMid meet">
<metadata>
Created by potrace 1.11, written by Peter Selinger 2001-2013
</metadata>
<g transform="translate(0.000000,700.000000) scale(0.100000,-0.100000)"
fill="#000000" stroke="none">
<path d="M4667 6634 c-1 -1 -35 -4 -76 -8 -679 -58 -1286 -501 -1551 -1131
-76 -180 -130 -393 -144 -570 -3 -33 -6 -667 -6 -1410 -2 -1108 -4 -1362 -16
-1415 -46 -220 -227 -418 -443 -486 -122 -39 -282 -37 -402 5 -342 117 -527
500 -405 836 68 188 221 337 410 400 88 29 129 34 279 34 l117 1 0 611 0 610
-162 -2 c-160 -2 -295 -14 -413 -39 -82 -17 -288 -79 -299 -91 -6 -5 -16 -9
-23 -9 -13 0 -153 -67 -228 -110 -316 -178 -594 -478 -755 -814 -46 -97 -122
-305 -134 -368 -2 -13 -11 -61 -20 -108 -36 -188 -39 -422 -10 -616 4 -30 25
-126 49 -224 20 -81 91 -263 133 -340 57 -105 114 -199 127 -210 8 -7 15 -16
15 -21 0 -10 2 -13 86 -114 183 -222 456 -425 718 -534 502 -208 1059 -191
1543 45 518 254 900 745 1012 1300 18 89 24 129 36 259 2 22 4 643 5 1380 0
1192 2 1348 17 1410 54 239 228 420 465 485 328 90 675 -93 782 -412 33 -97
37 -119 36 -208 -1 -116 -9 -164 -47 -254 -76 -182 -222 -315 -414 -375 -80
-25 -124 -30 -266 -30 l-113 -1 0 -611 0 -612 198 6 c108 3 208 8 222 11 14 4
48 9 75 12 155 19 389 98 565 191 182 95 314 194 464 346 254 258 432 588 500
927 3 14 7 34 10 46 4 20 14 93 22 159 11 94 3 423 -11 445 -2 3 -6 26 -10 50
-61 431 -346 902 -710 1170 -44 33 -84 63 -90 68 -25 19 -143 88 -215 123
-144 72 -366 145 -495 164 -22 4 -51 8 -65 11 -73 12 -353 27 -363 18z"/>
</g>
</svg>
